<svg xmlns="http://www.w3.org/2000/svg" fill="none" viewBox="0 0 640 640">
  <path d="M562.7 0H564.107L477.014 118.551C462.304 138.566 445.645 160.209 431.566 180.425L520.357 245.572L554.584 270.679C565.518 278.681 585.591 291.979 592.891 303.058C605.841 322.724 614.115 353.664 618.336 377.26C624.899 413.956 627.771 452.24 631.33 489.386C633.924 514.238 636.848 539.052 640.094 563.811L459.671 431.431L365.529 559.705C362.984 563.191 360.144 567.283 357.48 570.589C351.433 578.933 343.074 589.831 334.346 594.587C283.067 622.51 210.811 625.24 154.83 630.743C128.542 633.438 102.288 636.524 76.0759 640L208.616 459.577C178.45 438.215 147.186 414.508 117.212 392.506L81.093 366.029C71.0451 358.665 52.0183 346.003 46.0047 335.09C17.5651 283.484 14.9297 213.68 9.29949 155.072C6.61735 128.693 3.51708 102.369 0 76.1104C60.1701 119.256 120.668 164.619 180.499 208.547C186.189 200.079 194.382 189.543 200.5 181.209L240.352 126.972L271.857 84.0334C289.67 59.7423 295.677 47.6115 323.562 36.8216C372.542 17.8695 424.654 15.0104 475.907 10.1447C496.107 8.26009 516.278 6.03537 536.417 3.4713C544.418 2.50145 555.008 1.52989 562.7 0Z" fill="#FDFDFD"/>
  <path d="M484.137 29.4155C486.17 28.7098 493.558 28.5794 496.147 28.3147C504.188 27.4934 512.299 26.7633 520.313 25.6182L407.087 179.793L371.594 228.083C367.086 234.231 358.6 245.057 354.979 250.874C346.078 262.521 337.671 274.607 328.81 286.262L325.207 291.357C316.015 290.519 310.118 291.565 302.192 297.101C290.689 289.141 278.176 279.508 266.781 271.145L197.038 219.904L274.89 113.95L295.126 86.2965C299.757 80.0013 305.262 72.0109 310.74 66.9008C316.575 61.5846 323.323 58.5573 330.376 55.7298C379.463 36.047 432.858 35.5649 484.137 29.4155Z" fill="#A6DDF4"/>
  <path d="M197.038 219.904L274.89 113.95L295.126 86.2965C299.757 80.0013 305.262 72.0109 310.74 66.9008C308.676 123.342 311.891 179.869 320.337 235.577C322.481 250.561 325.617 271.658 328.81 286.262L325.207 291.357C316.015 290.519 310.118 291.565 302.192 297.101C290.689 289.141 278.176 279.508 266.781 271.145L197.038 219.904Z" fill="#F8AED5"/>
  <path d="M484.137 29.4155L484.821 29.8462C482.606 30.9559 473.737 32.8654 470.87 33.5656C464.461 35.0964 458.101 36.8521 451.793 38.8299C347.64 71.59 306.942 134.547 354.979 250.874C346.078 262.521 337.671 274.607 328.81 286.262C325.617 271.658 322.481 250.561 320.337 235.577C311.891 179.869 308.676 123.342 310.74 66.9008C316.575 61.5846 323.323 58.5573 330.376 55.7298C379.463 36.047 432.858 35.5649 484.137 29.4155Z" fill="#00D9F6"/>
  <path d="M25.6332 119.824L250.893 285.094C262.404 293.655 275.191 302.521 286.335 311.321L290.812 314.451C292.321 316.99 288.62 326.279 297.23 337.876L220.027 443.042L113.983 365.188L87.4789 345.793C82.1235 341.873 71.2414 334.297 67.1236 329.398C62.967 326.261 58.8871 316.916 56.7903 311.91C36.6934 263.925 35.0059 207.302 29.4603 155.593C28.8186 153.831 28.3427 144.362 28.1045 141.857C27.4085 134.496 26.5846 127.15 25.6332 119.824Z" fill="#A6DDF4"/>
  <path d="M286.335 311.321L290.812 314.451C292.321 316.99 288.62 326.279 297.23 337.876L220.027 443.042L113.983 365.188L87.4788 345.793C82.1234 341.873 71.2413 334.297 67.1235 329.398C140.559 331.634 214.009 325.577 286.335 311.321Z" fill="#F5701C"/>
  <path d="M29.4603 155.593L29.9839 155.168C31.1959 157.894 32.0375 162.898 32.778 165.979C45.8756 220.468 71.7001 279.04 123.612 298.077C164.961 313.24 211.226 301.568 250.892 285.094C262.403 293.655 275.191 302.521 286.335 311.321C214.009 325.577 140.559 331.634 67.1236 329.398C62.967 326.261 58.8871 316.916 56.7902 311.91C36.6934 263.925 35.0059 207.302 29.4603 155.593Z" fill="#00D9F6"/>
  <path d="M338.046 342.852L443.14 420.074L365.375 525.942L346.484 551.717C342.532 557.132 334.077 569.231 329.485 572.908C319.385 583.562 285.378 593.019 271.175 596.012C234.247 603.805 195.583 606.783 158.122 610.25C155.846 610.958 147.066 611.432 144.265 611.681C136.073 612.394 127.897 613.312 119.741 614.42C140.605 587.414 162.355 556.531 182.766 528.735L285.202 389.176C293.882 377.911 302.849 365.196 311.348 353.63L314.784 348.972C315.622 348.56 319.16 348.831 320.377 348.806C327.937 348.647 331.814 346.969 338.046 342.852Z" fill="#A6DDF4"/>
  <path d="M338.046 342.852L443.14 420.074L365.375 525.942L346.484 551.717C342.532 557.132 334.077 569.231 329.485 572.908C331.699 499.263 325.604 425.603 311.348 353.63L314.784 348.972C315.622 348.56 319.16 348.831 320.377 348.806C327.937 348.647 331.814 346.969 338.046 342.852Z" fill="#FEBD11"/>
  <path d="M311.348 353.63C325.604 425.603 331.699 499.263 329.485 572.908C319.385 583.562 285.378 593.019 271.175 596.012C234.247 603.805 195.584 606.783 158.122 610.25L155.135 609.904C154.908 610.06 184.727 602.375 186.039 601.994C255.207 582.117 321.008 536.215 302.377 444.933C298.125 424.082 293.137 409.093 285.202 389.176C293.882 377.911 302.849 365.196 311.348 353.63Z" fill="#00D9F6"/>
  <path d="M420.169 196.985L523.335 272.708L551.691 293.484C558.611 298.548 567.256 304.473 573.211 310.581C600.478 342.245 606.873 443.742 610.843 486.724C611.87 489.918 613.811 514.975 614.451 520.049C594.197 505.947 573.537 489.83 553.367 475.294C498.538 435.782 444.198 394.234 389.303 354.915C377.654 346.027 365.525 337.588 353.801 328.683C352.734 328.076 349.88 325.891 348.738 325.065C349.519 314.634 348.076 310.378 343.079 301.974L420.169 196.985Z" fill="#A6DDF4"/>
  <path d="M420.169 196.985L523.335 272.708L551.691 293.484C558.611 298.548 567.256 304.473 573.211 310.581C499.707 308.346 426.194 314.411 353.801 328.683C352.734 328.076 349.88 325.891 348.738 325.065C349.519 314.634 348.076 310.378 343.079 301.974L420.169 196.985Z" fill="#C0DA1F"/>
  <path d="M353.801 328.683C426.194 314.411 499.707 308.346 573.211 310.581C600.477 342.245 606.873 443.742 610.843 486.724C610.027 485.337 606.229 469.099 605.541 466.463C603.94 460.32 602.162 454.236 600.208 448.219C561.549 329.127 487.255 315.022 389.303 354.915C377.654 346.027 365.525 337.588 353.801 328.683Z" fill="#00D9F6"/>
  <path d="M325.207 291.357C333.3 293.536 336.842 295.588 343.079 301.974C348.076 310.378 349.518 314.634 348.738 325.065C346.444 333.328 344.38 337.297 338.046 342.852C331.814 346.969 327.937 348.647 320.377 348.806C319.16 348.831 315.622 348.56 314.784 348.972C313.717 348.349 311.084 347.519 309.809 346.994C304.022 344.601 301.513 342.605 297.23 337.876C288.62 326.279 292.321 316.99 290.812 314.451C291.717 313.732 291.708 313.306 292.202 311.97C294.645 305.337 297.256 301.577 302.192 297.101C310.118 291.565 316.015 290.519 325.207 291.357Z" fill="#E7E4C8"/>
</svg>
